<?xml version="1.0" encoding="UTF-8" standalone="no"?>
<!DOCTYPE svg PUBLIC "-//W3C//DTD SVG 1.1//EN" "http://www.w3.org/Graphics/SVG/1.1/DTD/svg11.dtd">
<svg width="100%" height="100%" viewBox="0 0 64 64" version="1.1" xmlns="http://www.w3.org/2000/svg" xmlns:xlink="http://www.w3.org/1999/xlink" xml:space="preserve" style="fill-rule:evenodd;clip-rule:evenodd;stroke-linejoin:round;stroke-miterlimit:1.41421;">
    <rect id="Artboard1" x="0" y="0" width="64" height="64" style="fill:none;"/>
    <clipPath id="_clip1">
        <rect id="Artboard11" x="0" y="0" width="64" height="64"/>
    </clipPath>
    <g clip-path="url(#_clip1)">
        <g transform="matrix(0.802164,0,0,0.802164,6.33077,6.28075)">
            <g transform="matrix(1,0,0,1,-3.86153,-7.20053)">
                <path d="M9.354,58.115L9.354,19.733L21.875,19.733C25.882,19.733 29.019,20.598 31.286,22.329C33.553,24.06 34.687,26.657 34.687,30.119C34.687,31.824 34.142,33.348 33.052,34.693C31.963,36.037 30.531,37.035 28.756,37.685C31.075,38.177 32.899,39.31 34.226,41.085C35.552,42.86 36.216,44.925 36.216,47.28C36.216,50.795 35.078,53.48 32.802,55.334C30.526,57.188 27.438,58.115 23.536,58.115L9.354,58.115ZM14.547,40.136L14.547,54.029L23.536,54.029C25.891,54.029 27.728,53.447 29.046,52.282C30.364,51.118 31.023,49.468 31.023,47.332C31.023,45.091 30.473,43.332 29.375,42.054C28.277,40.775 26.585,40.136 24.301,40.136L14.547,40.136ZM14.547,36.05L22.956,36.05C24.889,36.05 26.462,35.519 27.675,34.456C28.887,33.392 29.494,31.912 29.494,30.014C29.494,27.94 28.839,26.389 27.53,25.361C26.221,24.333 24.336,23.819 21.875,23.819L14.547,23.819L14.547,36.05Z" fill="#3A4058" style="fill-rule:nonzero;"/>
                <path d="M51.482,58.668C47.51,58.668 44.351,57.346 42.005,54.701C39.659,52.056 38.486,48.625 38.486,44.407L38.486,43.247C38.486,39.187 39.694,35.809 42.111,33.111C44.527,30.413 47.387,29.065 50.691,29.065C54.54,29.065 57.449,30.225 59.417,32.544C61.385,34.864 62.369,37.957 62.369,41.823L62.369,45.066L43.864,45.066L43.785,45.197C43.837,47.931 44.532,50.179 45.867,51.94C47.203,53.702 49.074,54.582 51.482,54.582C53.24,54.582 54.782,54.332 56.109,53.831C57.435,53.33 58.582,52.64 59.549,51.762L61.578,55.14C60.559,56.148 59.215,56.988 57.545,57.66C55.876,58.332 53.855,58.668 51.482,58.668ZM50.691,33.151C48.951,33.151 47.466,33.882 46.236,35.344C45.006,36.807 44.25,38.642 43.969,40.849L44.022,40.98L57.176,40.98L57.176,40.297C57.176,38.265 56.631,36.566 55.542,35.2C54.452,33.834 52.835,33.151 50.691,33.151Z" fill="#3A4058" style="fill-rule:nonzero;"/>
            </g>
            <g transform="matrix(1,0,0,1,0.78125,-0.390625)">
                <rect x="37.617" y="16.904" width="17.773" height="3.516" style="fill:#3A4058;"/>
            </g>
        </g>
    </g>
</svg>
