<?xml version="1.0" encoding="UTF-8" standalone="no"?>
<!DOCTYPE svg PUBLIC "-//W3C//DTD SVG 1.1//EN" "http://www.w3.org/Graphics/SVG/1.1/DTD/svg11.dtd">
<svg width="100%" height="100%" viewBox="0 0 64 64" version="1.1" xmlns="http://www.w3.org/2000/svg" xmlns:xlink="http://www.w3.org/1999/xlink" xml:space="preserve" style="fill-rule:evenodd;clip-rule:evenodd;stroke-linejoin:round;stroke-miterlimit:1.41421;">
    <g transform="matrix(1,0,0,1,-134.296,0)">
        <rect id="Artboard3" x="134.296" y="0" width="64" height="64" style="fill:none;"/>
        <clipPath id="_clip1">
            <rect id="Artboard31" x="134.296" y="0" width="64" height="64"/>
        </clipPath>
        <g clip-path="url(#_clip1)">
            <g>
                <path d="M165.682,17.301L152.129,26.319C152.129,26.319 151.476,26.67 151.463,27.502L151.476,36.655C151.476,36.655 151.342,37.058 151.959,37.474L165.837,46.735C165.837,46.735 166.334,46.963 166.79,46.722L180.615,37.528C180.615,37.528 181.125,37.313 181.138,36.696L181.165,27.327C181.165,27.327 181.138,26.723 180.628,26.361L167.018,17.274C167.018,17.274 166.373,16.791 165.682,17.301ZM167.578,37.165L167.578,43.12L177.561,36.477L173.132,33.457L167.578,37.165ZM165.082,37.215L165.082,43.12L155.029,36.51L159.458,33.457L165.082,37.215ZM161.773,32L166.296,28.893L170.783,31.953L166.296,34.933L161.773,32ZM175.396,32L178.584,29.799C178.584,29.799 178.819,34.161 178.634,34.078C178.45,33.994 175.396,32 175.396,32ZM157.142,31.913C157.095,31.93 154.006,34.078 154.006,34.078L154.022,29.799C154.022,29.799 157.094,31.897 157.142,31.913ZM165.082,20.74L165.082,26.639L159.542,30.42L155.029,27.383L165.082,20.74ZM167.578,20.74L167.578,26.696L173.148,30.42L177.561,27.4L167.578,20.74Z" fill="#3A4058"/>
            </g>
        </g>
    </g>
</svg>
