<?xml version="1.0" encoding="utf-8"?>
<!-- Generator: Adobe Illustrator 18.0.0, SVG Export Plug-In . SVG Version: 6.00 Build 0)  -->
<!DOCTYPE svg PUBLIC "-//W3C//DTD SVG 1.1//EN" "http://www.w3.org/Graphics/SVG/1.1/DTD/svg11.dtd">
<svg version="1.1" id="Layer_1" xmlns="http://www.w3.org/2000/svg" xmlns:xlink="http://www.w3.org/1999/xlink" x="0px" y="0px"
	 viewBox="0 0 250 250" enable-background="new 0 0 250 250" xml:space="preserve">
<g>
	<polygon fill="#42B3E6" points="188.7,202.3 145,202.3 111.3,143.9 77.5,85.4 99.4,47.7 144,125 	"/>
	<polygon fill="#42B3E6" points="240,202.3 196.4,202.3 162.6,143.9 128.9,85.4 150.7,47.7 195.3,125 	"/>
	<polygon fill="#42B3E6" points="137.3,202 93.7,202 68.8,158.9 90.6,121.1 92.7,124.7 	"/>
	<polygon fill="#2C75BC" points="95.5,129.6 68.4,176.5 53.6,202.3 10,202.3 29.1,169.3 73.2,92.8 73.7,91.8 73.9,92 73.9,92 
		75,93.9 75.6,95 75.6,95 	"/>
</g>
</svg>
