<?xml version="1.0" encoding="UTF-8" standalone="no"?><!DOCTYPE svg PUBLIC "-//W3C//DTD SVG 1.1//EN" "http://www.w3.org/Graphics/SVG/1.1/DTD/svg11.dtd"><svg width="100%" height="100%" viewBox="0 0 32 32" version="1.1" xmlns="http://www.w3.org/2000/svg" xmlns:xlink="http://www.w3.org/1999/xlink" xml:space="preserve" xmlns:serif="http://www.serif.com/" style="fill-rule:evenodd;clip-rule:evenodd;stroke-linejoin:round;stroke-miterlimit:1.41421;"><path d="M16.05,13.755c-2.143,0 -3.909,1.741 -3.909,3.91c0,2.169 1.766,3.884 3.909,3.884c2.144,0 3.91,-1.741 3.91,-3.91c0,-2.169 -1.741,-3.884 -3.91,-3.884Zm9.534,-5.649l-3.026,0l-0.681,-1.841c-0.354,-0.883 -1.413,-1.615 -2.346,-1.615l-6.936,0c-0.958,0 -1.992,0.732 -2.345,1.615l-0.681,1.841l-3.027,0c-1.917,0 -3.455,1.563 -3.455,3.455l0,12.132c0,1.916 1.563,3.455 3.455,3.455l19.042,0c1.917,0 3.455,-1.564 3.455,-3.455l0,-12.107c0.026,-1.917 -1.538,-3.48 -3.455,-3.48Zm-9.534,15.612c-3.354,0 -6.053,-2.724 -6.053,-6.053c0,-3.33 2.724,-6.054 6.053,-6.054c3.355,0 6.054,2.724 6.054,6.054c0,3.329 -2.699,6.053 -6.054,6.053Z" style="fill:#A1A6BB;fill-rule:nonzero;"/></svg>